<svg width="156" height="50" viewBox="0 0 156 50" fill="none" xmlns="http://www.w3.org/2000/svg">
<path d="M54.4 0H13.6C6.08891 0 0 4.47715 0 10V40C0 45.5229 6.08891 50 13.6 50H54.4C61.911 50 68 45.5229 68 40V10C68 4.47715 61.911 0 54.4 0Z" fill="#4A90E2"/>
<path d="M42.76 11V9.56H43.36C43.3333 9.56 44.8133 9.58667 47.8 9.64C50.36 9.66667 52.5733 9.66667 54.44 9.64L57.64 9.56H58.08V11V12.44H56.48H54.84V22.2V31.92L54.68 32.4C54.44 33.3333 53.96 34.16 53.24 34.88C51.9333 36.1867 50.04 36.9867 47.56 37.28C46.0133 37.4667 44.5333 37.4933 43.12 37.36C40.5867 37.04 38.8 36.2533 37.76 35C37.3867 34.5467 37.1333 34.0133 37 33.4C36.84 32.7867 36.84 32.1333 37 31.44C37.32 30.2133 38.12 29.4 39.4 29C39.6133 28.9467 39.96 28.92 40.44 28.92C40.92 28.92 41.28 28.9467 41.52 29C42.7733 29.4267 43.56 30.24 43.88 31.44C44.04 32.0533 44.04 32.7067 43.88 33.4C43.72 33.96 43.5333 34.36 43.32 34.6C43.2133 34.76 43.1733 34.84 43.2 34.84C43.36 34.8933 43.84 34.9467 44.64 35C45.12 35 45.4533 34.9867 45.64 34.96C47.08 34.72 47.96 33.8533 48.28 32.36C48.3333 32.12 48.3733 28.7333 48.4 22.2V12.44H45.6H42.76V11Z" fill="white"/>
<path d="M8.53287 25.4V24.536H11.8929H15.2769L15.3969 24.608C15.5569 24.688 15.6929 24.872 15.8049 25.16L18.3249 31.16L20.7009 36.824L23.0769 31.16L25.5969 25.16C25.7089 24.872 25.8529 24.688 26.0289 24.608L26.1489 24.536H29.4849H32.8449V25.4V26.264H31.5489H30.2529V32.768V39.272H31.5489H32.8449V40.136V41H32.5569C32.5729 41 31.8369 40.984 30.3489 40.952C29.0849 40.936 27.8209 40.936 26.5569 40.952C25.0689 40.984 24.3329 41 24.3489 41H24.0609V40.136V39.272H25.3569H26.6529V32.864L26.6289 26.504C26.5489 26.664 25.5569 29.032 23.6529 33.608C21.6689 38.312 20.6609 40.68 20.6289 40.712C20.5489 40.84 20.4289 40.928 20.2689 40.976C20.1089 41.024 19.8129 41.032 19.3809 41C19.3169 41 19.2689 40.992 19.2369 40.976C19.0769 40.928 18.9569 40.84 18.8769 40.712C18.8449 40.68 17.8609 38.36 15.9249 33.752C13.9889 29.112 13.0209 26.8 13.0209 26.816L12.9969 32.984V33.032V39.272H14.2929H15.5889V40.136V41H15.3489C15.3649 41 14.7809 40.984 13.5969 40.952C12.5729 40.936 11.5489 40.936 10.5249 40.952C9.34087 40.984 8.75687 41 8.77287 41H8.53287V40.136V39.272H9.82887H11.1249V32.768V26.264H9.82887H8.53287V25.4Z" fill="#EAE2E2"/>
<path d="M74.672 36L74.504 34.032L75.92 33.816V21.672L74.6 21.528V19.416H80.432L84.08 32.064L87.728 19.416H93.152L93.488 21.528L92.168 21.792V33.84L93.44 34.032V36H88.472L88.256 33.984L89.36 33.672V21.528L85.256 35.688H82.232L78.176 21.72V33.768L79.352 34.032L79.376 36H74.672ZM100.451 36.096C99.5068 36.096 98.6188 35.88 97.7868 35.448C96.9708 35 96.3068 34.344 95.7948 33.48C95.2988 32.616 95.0508 31.552 95.0508 30.288C95.0508 28.928 95.3068 27.808 95.8188 26.928C96.3308 26.032 96.9948 25.368 97.8108 24.936C98.6268 24.488 99.4748 24.264 100.355 24.264C101.027 24.264 101.667 24.384 102.275 24.624C102.883 24.848 103.379 25.208 103.763 25.704C104.163 26.184 104.363 26.792 104.363 27.528C104.363 28.232 104.211 28.824 103.907 29.304C103.619 29.784 103.211 30.176 102.683 30.48C102.171 30.784 101.587 31.008 100.931 31.152C100.291 31.28 99.6188 31.336 98.9148 31.32L97.8588 31.296C97.9548 32.048 98.2348 32.68 98.6988 33.192C99.1628 33.704 99.8908 33.96 100.883 33.96C101.587 33.96 102.163 33.832 102.611 33.576C103.075 33.32 103.451 33.056 103.739 32.784L104.291 34.728C104.115 34.936 103.843 35.144 103.475 35.352C103.107 35.56 102.667 35.736 102.155 35.88C101.643 36.024 101.075 36.096 100.451 36.096ZM97.8588 29.376L98.6028 29.4C98.9228 29.416 99.2588 29.4 99.6108 29.352C99.9628 29.288 100.291 29.192 100.595 29.064C100.915 28.936 101.163 28.752 101.339 28.512C101.531 28.272 101.627 27.968 101.627 27.6C101.627 27.2 101.507 26.904 101.267 26.712C101.027 26.504 100.731 26.4 100.379 26.4C99.9468 26.4 99.5468 26.536 99.1788 26.808C98.8108 27.08 98.5068 27.44 98.2668 27.888C98.0428 28.336 97.9068 28.832 97.8588 29.376ZM111.302 36.096C110.358 36.096 109.47 35.88 108.638 35.448C107.822 35 107.158 34.344 106.646 33.48C106.15 32.616 105.902 31.552 105.902 30.288C105.902 28.928 106.158 27.808 106.67 26.928C107.182 26.032 107.846 25.368 108.662 24.936C109.478 24.488 110.326 24.264 111.206 24.264C111.878 24.264 112.518 24.384 113.126 24.624C113.734 24.848 114.23 25.208 114.614 25.704C115.014 26.184 115.214 26.792 115.214 27.528C115.214 28.232 115.062 28.824 114.758 29.304C114.47 29.784 114.062 30.176 113.534 30.48C113.022 30.784 112.438 31.008 111.782 31.152C111.142 31.28 110.47 31.336 109.766 31.32L108.71 31.296C108.806 32.048 109.086 32.68 109.55 33.192C110.014 33.704 110.742 33.96 111.734 33.96C112.438 33.96 113.014 33.832 113.462 33.576C113.926 33.32 114.302 33.056 114.59 32.784L115.142 34.728C114.966 34.936 114.694 35.144 114.326 35.352C113.958 35.56 113.518 35.736 113.006 35.88C112.494 36.024 111.926 36.096 111.302 36.096ZM108.71 29.376L109.454 29.4C109.774 29.416 110.11 29.4 110.462 29.352C110.814 29.288 111.142 29.192 111.446 29.064C111.766 28.936 112.014 28.752 112.19 28.512C112.382 28.272 112.478 27.968 112.478 27.6C112.478 27.2 112.358 26.904 112.118 26.712C111.878 26.504 111.582 26.4 111.23 26.4C110.798 26.4 110.398 26.536 110.03 26.808C109.662 27.08 109.358 27.44 109.118 27.888C108.894 28.336 108.758 28.832 108.71 29.376ZM121.098 36.096C120.57 36.096 120.09 36 119.658 35.808C119.226 35.6 118.874 35.256 118.602 34.776C118.33 34.296 118.194 33.64 118.194 32.808L118.242 26.304H116.418L116.058 24.504L116.226 24.264H118.266L118.314 20.232L120.69 19.704L120.906 20.088L120.882 24.264H123.33C123.41 24.264 123.45 24.312 123.45 24.408V26.304H120.882V32.808C120.882 33.288 120.946 33.592 121.074 33.72C121.218 33.848 121.418 33.912 121.674 33.912C121.962 33.912 122.258 33.824 122.562 33.648C122.882 33.472 123.114 33.336 123.258 33.24L123.834 35.064C123.626 35.288 123.266 35.52 122.754 35.76C122.258 35.984 121.706 36.096 121.098 36.096ZM127.815 36.096C127.095 36.096 126.399 35.936 125.727 35.616C125.071 35.296 124.551 34.968 124.167 34.632L125.751 32.376C126.151 32.712 126.519 32.992 126.855 33.216C127.207 33.44 127.511 33.552 127.767 33.552C127.927 33.552 128.055 33.496 128.151 33.384C128.263 33.256 128.319 33.056 128.319 32.784V21.768L126.423 21.504L126.735 19.416H132.807V21.48L131.223 21.648V31.92C131.223 32.832 131.103 33.568 130.863 34.128C130.639 34.688 130.351 35.112 129.999 35.4C129.663 35.672 129.295 35.856 128.895 35.952C128.511 36.048 128.151 36.096 127.815 36.096ZM138.977 36.096C138.065 36.096 137.209 35.864 136.409 35.4C135.625 34.92 134.985 34.232 134.489 33.336C134.009 32.44 133.769 31.368 133.769 30.12C133.769 28.856 134.009 27.792 134.489 26.928C134.985 26.048 135.625 25.384 136.409 24.936C137.209 24.488 138.065 24.264 138.977 24.264C139.905 24.264 140.761 24.496 141.545 24.96C142.345 25.408 142.985 26.072 143.465 26.952C143.961 27.816 144.209 28.872 144.209 30.12C144.209 31.368 143.961 32.44 143.465 33.336C142.985 34.232 142.345 34.92 141.545 35.4C140.761 35.864 139.905 36.096 138.977 36.096ZM138.977 33.984C139.473 33.984 139.905 33.856 140.273 33.6C140.657 33.328 140.953 32.92 141.161 32.376C141.369 31.832 141.473 31.128 141.473 30.264C141.473 29.384 141.369 28.656 141.161 28.08C140.953 27.504 140.657 27.08 140.273 26.808C139.905 26.52 139.473 26.376 138.977 26.376C138.625 26.376 138.297 26.456 137.993 26.616C137.689 26.776 137.425 27.024 137.201 27.36C136.993 27.696 136.825 28.112 136.697 28.608C136.585 29.088 136.529 29.648 136.529 30.288C136.529 31.152 136.633 31.856 136.841 32.4C137.049 32.944 137.337 33.344 137.705 33.6C138.089 33.856 138.513 33.984 138.977 33.984ZM147.235 36.072L146.539 35.544V20.328L145.243 20.424L145.003 18.84L148.411 18.36L149.203 19.2V24.792C149.475 24.632 149.787 24.504 150.139 24.408C150.507 24.312 150.915 24.264 151.363 24.264C152.339 24.264 153.179 24.504 153.883 24.984C154.587 25.448 155.131 26.112 155.515 26.976C155.899 27.824 156.091 28.832 156.091 30C156.091 31.104 155.947 32.048 155.659 32.832C155.371 33.616 154.979 34.248 154.483 34.728C153.987 35.192 153.419 35.536 152.779 35.76C152.139 35.984 151.475 36.096 150.787 36.096C150.339 36.096 149.915 36.056 149.515 35.976C149.131 35.88 148.779 35.744 148.459 35.568L147.235 36.072ZM150.787 33.984C151.283 33.984 151.723 33.84 152.107 33.552C152.491 33.248 152.787 32.816 152.995 32.256C153.219 31.68 153.331 30.968 153.331 30.12C153.331 29.32 153.227 28.64 153.019 28.08C152.827 27.52 152.547 27.096 152.179 26.808C151.811 26.52 151.371 26.376 150.859 26.376C150.539 26.376 150.227 26.432 149.923 26.544C149.619 26.64 149.379 26.768 149.203 26.928V33.6C149.363 33.712 149.595 33.808 149.899 33.888C150.219 33.952 150.515 33.984 150.787 33.984Z" fill="#2B5DDC"/>
</svg>
